<?xml version="1.0" encoding="UTF-8" standalone="no"?>
<!DOCTYPE svg PUBLIC "-//W3C//DTD SVG 1.1//EN"
 "http://www.w3.org/Graphics/SVG/1.1/DTD/svg11.dtd">
<!-- Generated by graphviz version 2.36.0 (20140111.2315)
 -->
<!-- Title: obj Pages: 1 -->
<svg width="734pt" height="476pt"
 viewBox="0.00 0.00 734.00 476.00" xmlns="http://www.w3.org/2000/svg" xmlns:xlink="http://www.w3.org/1999/xlink">
<g id="graph0" class="graph" transform="scale(1 1) rotate(0) translate(4 472)">
<title>obj</title>
<polygon fill="white" stroke="none" points="-4,4 -4,-472 730,-472 730,4 -4,4"/>
<!-- Resource -->
<g id="node1" class="node"><title>Resource</title>
<polygon fill="palegreen" stroke="none" points="388,-387 388,-406 438,-406 438,-387 388,-387"/>
<polygon fill="none" stroke="black" points="388,-387 388,-406 438,-406 438,-387 388,-387"/>
<text text-anchor="start" x="391.5" y="-393.7" font-family="Times,serif" font-size="11.00">Resource</text>
<polygon fill="none" stroke="black" points="387,-386.5 387,-407.5 439,-407.5 439,-386.5 387,-386.5"/>
</g>
<!-- ResourceConfiguration -->
<g id="node2" class="node"><title>ResourceConfiguration</title>
<polygon fill="palegreen" stroke="none" points="358,-249 358,-268 468,-268 468,-249 358,-249"/>
<polygon fill="none" stroke="black" points="358,-249 358,-268 468,-268 468,-249 358,-249"/>
<text text-anchor="start" x="361.5" y="-255.7" font-family="Times,serif" font-size="11.00">ResourceConfiguration</text>
<polygon fill="none" stroke="black" points="357,-248.5 357,-269.5 469,-269.5 469,-248.5 357,-248.5"/>
</g>
<!-- Resource&#45;&gt;ResourceConfiguration -->
<g id="edge1" class="edge"><title>Resource&#45;&gt;ResourceConfiguration</title>
<path fill="none" stroke="black" d="M413,-378.776C413,-352.615 413,-303.162 413,-277.085"/>
<text text-anchor="middle" x="417.226" y="-283.948" font-family="Times,serif" font-size="9.00">configures 1</text>
<text text-anchor="middle" x="408.774" y="-367.512" font-family="Times,serif" font-size="9.00">1.. hasResourceConfiguration</text>
</g>
<!-- Medication -->
<g id="node3" class="node"><title>Medication</title>
<polygon fill="palegreen" stroke="none" points="9,-159 9,-178 162,-178 162,-159 9,-159"/>
<polygon fill="none" stroke="black" points="9,-159 9,-178 162,-178 162,-159 9,-159"/>
<text text-anchor="start" x="60" y="-165.7" font-family="Times,serif" font-size="11.00">Medication</text>
<polygon fill="white" stroke="none" points="9,-143 9,-159 162,-159 162,-143 9,-143"/>
<text text-anchor="start" x="11" y="-148.2" font-family="Times,serif" font-size="11.00">hasName: string</text>
<polygon fill="white" stroke="none" points="9,-127 9,-143 162,-143 162,-127 9,-127"/>
<text text-anchor="start" x="11" y="-132.2" font-family="Times,serif" font-size="11.00">hasQuantity: nonNegativeInteger</text>
<polygon fill="none" stroke="black" points="7.5,-126.5 7.5,-179.5 162.5,-179.5 162.5,-126.5 7.5,-126.5"/>
</g>
<!-- ResourceConfiguration&#45;&gt;Medication -->
<g id="edge2" class="edge"><title>ResourceConfiguration&#45;&gt;Medication</title>
<path fill="none" stroke="black" d="M348.858,-241.932C301.507,-229.582 235.713,-211.396 179,-192 171.422,-189.408 163.568,-186.537 155.776,-183.568"/>
<text text-anchor="middle" x="212.467" y="-217.736" font-family="Times,serif" font-size="9.00">configuresMedication</text>
<text text-anchor="middle" x="165.749" y="-180.632" font-family="Times,serif" font-size="9.00">1</text>
<text text-anchor="middle" x="339.018" y="-241.513" font-family="Times,serif" font-size="9.00">1..</text>
</g>
<!-- Electrode -->
<g id="node7" class="node"><title>Electrode</title>
<polygon fill="palegreen" stroke="none" points="198,-151 198,-170 391,-170 391,-151 198,-151"/>
<polygon fill="none" stroke="black" points="198,-151 198,-170 391,-170 391,-151 198,-151"/>
<text text-anchor="start" x="273" y="-157.7" font-family="Times,serif" font-size="11.00">Electrode</text>
<polygon fill="white" stroke="none" points="198,-135 198,-151 391,-151 391,-135 198,-135"/>
<text text-anchor="start" x="200" y="-140.2" font-family="Times,serif" font-size="11.00">hasElectrodeNumber: nonNegativeInteger</text>
<polygon fill="none" stroke="black" points="196.5,-134.5 196.5,-171.5 391.5,-171.5 391.5,-134.5 196.5,-134.5"/>
</g>
<!-- ResourceConfiguration&#45;&gt;Electrode -->
<g id="edge3" class="edge"><title>ResourceConfiguration&#45;&gt;Electrode</title>
<path fill="none" stroke="black" d="M393.35,-240.827C372.885,-222.942 340.781,-194.884 318.634,-175.529"/>
<text text-anchor="middle" x="321.123" y="-211.529" font-family="Times,serif" font-size="9.00">configuresElectrode</text>
<text text-anchor="middle" x="328.24" y="-176.111" font-family="Times,serif" font-size="9.00">1</text>
<text text-anchor="middle" x="383.744" y="-235.845" font-family="Times,serif" font-size="9.00">1..</text>
</g>
<!-- ElectrodeGroup -->
<g id="node8" class="node"><title>ElectrodeGroup</title>
<polygon fill="palegreen" stroke="none" points="427,-167 427,-186 637,-186 637,-167 427,-167"/>
<polygon fill="none" stroke="black" points="427,-167 427,-186 637,-186 637,-167 427,-167"/>
<text text-anchor="start" x="496.5" y="-173.7" font-family="Times,serif" font-size="11.00">ElectrodeGroup</text>
<polygon fill="white" stroke="none" points="427,-151 427,-167 637,-167 637,-151 427,-151"/>
<text text-anchor="start" x="429" y="-156.2" font-family="Times,serif" font-size="11.00">hasNumberOfElectrodes: nonNegativeInteger</text>
<polygon fill="white" stroke="none" points="427,-135 427,-151 637,-151 637,-135 427,-135"/>
<text text-anchor="start" x="429" y="-140.2" font-family="Times,serif" font-size="11.00">hasElectrodeArrayGeometry: string</text>
<polygon fill="white" stroke="none" points="427,-119 427,-135 637,-135 637,-119 427,-119"/>
<text text-anchor="start" x="429" y="-124.2" font-family="Times,serif" font-size="11.00">hasElectrodeSpacing: string</text>
<polygon fill="none" stroke="black" points="426,-118.5 426,-187.5 638,-187.5 638,-118.5 426,-118.5"/>
</g>
<!-- ResourceConfiguration&#45;&gt;ElectrodeGroup -->
<g id="edge4" class="edge"><title>ResourceConfiguration&#45;&gt;ElectrodeGroup</title>
<path fill="none" stroke="black" d="M432.65,-240.827C447.9,-227.499 469.612,-208.524 488.852,-191.71"/>
<text text-anchor="middle" x="412.255" y="-210.376" font-family="Times,serif" font-size="9.00">configuresElectrodeGroup</text>
<text text-anchor="middle" x="484.808" y="-198.656" font-family="Times,serif" font-size="9.00">1</text>
<text text-anchor="middle" x="436.694" y="-229.48" font-family="Times,serif" font-size="9.00">1..</text>
</g>
<!-- SetupEquipment -->
<g id="node9" class="node"><title>SetupEquipment</title>
<polygon fill="palegreen" stroke="none" points="552,-53 552,-72 655,-72 655,-53 552,-53"/>
<polygon fill="none" stroke="black" points="552,-53 552,-72 655,-72 655,-53 552,-53"/>
<text text-anchor="start" x="567" y="-59.7" font-family="Times,serif" font-size="11.00">SetupEquipment</text>
<polygon fill="white" stroke="none" points="552,-37 552,-53 655,-53 655,-37 552,-37"/>
<text text-anchor="start" x="554" y="-42.2" font-family="Times,serif" font-size="11.00">hasName: string</text>
<polygon fill="white" stroke="none" points="552,-21 552,-37 655,-37 655,-21 552,-21"/>
<text text-anchor="start" x="554" y="-26.2" font-family="Times,serif" font-size="11.00">hasVendor: string</text>
<polygon fill="white" stroke="none" points="552,-5 552,-21 655,-21 655,-5 552,-5"/>
<text text-anchor="start" x="554" y="-10.2" font-family="Times,serif" font-size="11.00">hasDescription: string</text>
<polygon fill="none" stroke="black" points="550.5,-4.5 550.5,-73.5 655.5,-73.5 655.5,-4.5 550.5,-4.5"/>
</g>
<!-- ResourceConfiguration&#45;&gt;SetupEquipment -->
<g id="edge5" class="edge"><title>ResourceConfiguration&#45;&gt;SetupEquipment</title>
<path fill="none" stroke="black" d="M450.792,-240.956C461.977,-236.326 474.349,-231.603 486,-228 559.369,-205.313 606.684,-251.693 655,-192 681.935,-158.723 657.873,-110.704 634.287,-77.5854"/>
<text text-anchor="middle" x="589.036" y="-214.089" font-family="Times,serif" font-size="9.00">configuresSetupEquipment</text>
<text text-anchor="middle" x="642.878" y="-80.5042" font-family="Times,serif" font-size="9.00">1</text>
<text text-anchor="middle" x="457.572" y="-231.406" font-family="Times,serif" font-size="9.00">1..</text>
</g>
<!-- Experiment -->
<g id="node4" class="node"><title>Experiment</title>
<polygon fill="palegreen" stroke="none" points="514,-387 514,-406 573,-406 573,-387 514,-387"/>
<polygon fill="none" stroke="black" points="514,-387 514,-406 573,-406 573,-387 514,-387"/>
<text text-anchor="start" x="517.5" y="-393.7" font-family="Times,serif" font-size="11.00">Experiment</text>
<polygon fill="none" stroke="black" points="512.5,-386.5 512.5,-407.5 573.5,-407.5 573.5,-386.5 512.5,-386.5"/>
</g>
<!-- Project -->
<g id="node5" class="node"><title>Project</title>
<polygon fill="palegreen" stroke="none" points="504,-265 504,-284 582,-284 582,-265 504,-265"/>
<polygon fill="none" stroke="black" points="504,-265 504,-284 582,-284 582,-265 504,-265"/>
<text text-anchor="start" x="527" y="-271.7" font-family="Times,serif" font-size="11.00">Project</text>
<polygon fill="white" stroke="none" points="504,-249 504,-265 582,-265 582,-249 504,-249"/>
<text text-anchor="start" x="506" y="-254.2" font-family="Times,serif" font-size="11.00">hasName: string</text>
<polygon fill="white" stroke="none" points="504,-233 504,-249 582,-249 582,-233 504,-233"/>
<text text-anchor="start" x="506" y="-238.2" font-family="Times,serif" font-size="11.00">hasGoal: string</text>
<polygon fill="none" stroke="black" points="503,-232.5 503,-285.5 583,-285.5 583,-232.5 503,-232.5"/>
</g>
<!-- Experiment&#45;&gt;Project -->
<g id="edge6" class="edge"><title>Experiment&#45;&gt;Project</title>
<path fill="none" stroke="black" d="M543,-378.776C543,-356.404 543,-316.996 543,-289.742"/>
<text text-anchor="middle" x="547.226" y="-296.605" font-family="Times,serif" font-size="9.00">hasExperiment 1</text>
<text text-anchor="middle" x="538.774" y="-367.512" font-family="Times,serif" font-size="9.00">1.. isPartOfProject</text>
</g>
<!-- Animal -->
<g id="node6" class="node"><title>Animal</title>
<polygon fill="palegreen" stroke="none" points="609,-443 609,-462 717,-462 717,-443 609,-443"/>
<polygon fill="none" stroke="black" points="609,-443 609,-462 717,-462 717,-443 609,-443"/>
<text text-anchor="start" x="646" y="-449.7" font-family="Times,serif" font-size="11.00">Animal</text>
<polygon fill="white" stroke="none" points="609,-427 609,-443 717,-443 717,-427 609,-427"/>
<text text-anchor="start" x="611" y="-432.2" font-family="Times,serif" font-size="11.00">hasAnimalID: string</text>
<polygon fill="white" stroke="none" points="609,-411 609,-427 717,-427 717,-411 609,-411"/>
<text text-anchor="start" x="611" y="-416.2" font-family="Times,serif" font-size="11.00">hasBrainRegion: string</text>
<polygon fill="white" stroke="none" points="609,-395 609,-411 717,-411 717,-395 609,-395"/>
<text text-anchor="start" x="611" y="-400.2" font-family="Times,serif" font-size="11.00">hasSex: string</text>
<polygon fill="white" stroke="none" points="609,-379 609,-395 717,-395 717,-379 609,-379"/>
<text text-anchor="start" x="611" y="-384.2" font-family="Times,serif" font-size="11.00">hasMark: string</text>
<polygon fill="white" stroke="none" points="609,-363 609,-379 717,-379 717,-363 609,-363"/>
<text text-anchor="start" x="611" y="-368.2" font-family="Times,serif" font-size="11.00">hasCageID: string</text>
<polygon fill="white" stroke="none" points="609,-347 609,-363 717,-363 717,-347 609,-347"/>
<text text-anchor="start" x="611" y="-352.2" font-family="Times,serif" font-size="11.00">hasSpecies: string</text>
<polygon fill="white" stroke="none" points="609,-331 609,-347 717,-347 717,-331 609,-331"/>
<text text-anchor="start" x="611" y="-336.2" font-family="Times,serif" font-size="11.00">hasAge: string</text>
<polygon fill="none" stroke="black" points="608,-330.5 608,-463.5 718,-463.5 718,-330.5 608,-330.5"/>
</g>
<!-- ElectrodeGroup&#45;&gt;SetupEquipment -->
<g id="edge7" class="edge"><title>ElectrodeGroup&#45;&gt;SetupEquipment</title>
<path fill="none" stroke="black" d="M555.839,-114.394C563.333,-102.574 571.605,-89.5238 579.103,-77.6973"/>
<text text-anchor="middle" x="531.97" y="-88.8481" font-family="Times,serif" font-size="9.00">hasSetupEquipment</text>
<text text-anchor="middle" x="577.82" y="-85.4147" font-family="Times,serif" font-size="9.00">1</text>
<text text-anchor="middle" x="557.123" y="-102.277" font-family="Times,serif" font-size="9.00">1..</text>
</g>
</g>
</svg>
